Results
version=1
nRows=11
nColumns=21
inDegrees=yes
endheader
time	r_shoulder_elev	r_elbow_flex	r_shoulder_elev_u	r_elbow_flex_u	TRIlong.activation	TRIlong.fiber_length	TRIlat.activation	TRIlat.fiber_length	TRImed.activation	TRImed.fiber_length	BIClong.activation	BIClong.fiber_length	BICshort.activation	BICshort.fiber_length	BRA.activation	BRA.fiber_length	DeltAnt.activation	DeltAnt.fiber_length	DeltPost.activation	DeltPost.fiber_length
      0.52000000	    -42.91088761	      6.25098129	    -41.25903221	    -10.06881901	      0.13376522	      0.11480837	      0.08251308	      0.07219968	      0.07909460	      0.06731862	      0.05000219	      0.15372057	      0.05001093	      0.16262172	      0.05001517	      0.08684470	      0.05000000	      0.18405885	      0.27026932	      0.06312794
      0.52100000	    -42.95190213	      6.24102439	    -41.10194790	     -9.99764187	      0.13377930	      0.11478955	      0.08252201	      0.07219589	      0.07908691	      0.06731488	      0.05000215	      0.15373028	      0.05001078	      0.16264658	      0.05001495	      0.08684462	      0.05000000	      0.18407684	      0.27008612	      0.06307988
      0.52200000	    -42.99291665	      6.23106748	    -40.94486359	     -9.92646474	      0.13379337	      0.11477073	      0.08253094	      0.07219210	      0.07907922	      0.06731115	      0.05000212	      0.15373999	      0.05001062	      0.16267144	      0.05001474	      0.08684454	      0.05000000	      0.18409483	      0.26990292	      0.06303181
      0.52300000	    -43.03393116	      6.22111058	    -40.78777928	     -9.85528760	      0.13380744	      0.11475190	      0.08253987	      0.07218831	      0.07907153	      0.06730741	      0.05000209	      0.15374970	      0.05001047	      0.16269629	      0.05001453	      0.08684446	      0.05000000	      0.18411281	      0.26971972	      0.06298375
      0.52400000	    -43.07451375	      6.21134897	    -40.63021258	     -9.78453152	      0.13381904	      0.11473334	      0.08254855	      0.07218453	      0.07906668	      0.06730371	      0.05000206	      0.15375928	      0.05001032	      0.16272088	      0.05001432	      0.08684438	      0.05000000	      0.18413059	      0.26954226	      0.06293619
      0.52500000	    -43.11503754	      6.20161396	    -40.47258021	     -9.71383276	      0.13383029	      0.11471482	      0.08255719	      0.07218074	      0.07906222	      0.06730001	      0.05000203	      0.15376884	      0.05001017	      0.16274544	      0.05001412	      0.08684430	      0.05000000	      0.18414835	      0.26936559	      0.06288870
      0.52600000	    -43.15556132	      6.19187894	    -40.31494783	     -9.64313400	      0.13384154	      0.11469630	      0.08256584	      0.07217696	      0.07905776	      0.06729630	      0.05000201	      0.15377840	      0.05001003	      0.16276999	      0.05001391	      0.08684422	      0.05000000	      0.18416611	      0.26918892	      0.06284121
      0.52700000	    -43.19570965	      6.18230859	    -40.15678712	     -9.57347000	      0.13384972	      0.11467802	      0.08257189	      0.07217322	      0.07905346	      0.06729265	      0.05000198	      0.15378785	      0.05000989	      0.16279431	      0.05001372	      0.08684414	      0.05000000	      0.18418369	      0.26902150	      0.06279413
      0.52800000	    -43.23573965	      6.17279013	    -39.99845991	     -9.50413210	      0.13385693	      0.11465981	      0.08257714	      0.07216949	      0.07904921	      0.06728901	      0.05000195	      0.15379725	      0.05000974	      0.16281856	      0.05001352	      0.08684406	      0.05000000	      0.18420122	      0.26885700	      0.06274719
      0.52900000	    -43.27576965	      6.16327168	    -39.84013269	     -9.43479421	      0.13386414	      0.11464161	      0.08258238	      0.07216576	      0.07904496	      0.06728537	      0.05000192	      0.15380666	      0.05000960	      0.16284281	      0.05001333	      0.08684398	      0.05000000	      0.18421874	      0.26869250	      0.06270025
      0.53000000	    -43.31560933	      6.15383751	    -39.68262728	     -9.36372848	      0.13387024	      0.11462353	      0.08258672	      0.07216206	      0.07904079	      0.06728175	      0.05000189	      0.15381601	      0.05000947	      0.16286694	      0.05001313	      0.08684390	      0.05000000	      0.18423618	      0.26853245	      0.06265352
